# xmcd
#
# Track frame offsets:
# 150
# 19425
# 36146
# 50514
# 67216
# 86323
# 105035
# 123645
# 146542
# 166774
# 189062
# 207288
# 223760
#
# Disc length: 3277 seconds
#
#
# Revision: 2
# Processed by: cddbd v1.5.2PL0 Copyright (c) Steve Scherf et al.
# Submitted via: FreeRIP 2.945 
#
DISCID=b10ccb0d
DTITLE=Ray Charles - Forever
DYEAR=2013
DGENRE=Soul
TTITLE0=A Song for You
TTITLE1=I'm Gonna Move to the Outskirts of Town
TTITLE2=Ring of Fire
TTITLE3=Come Rain or Come Shine
TTITLE4=They Can't Take That Away From Me
TTITLE5=Till There Was You
TTITLE6=Isn't It Wonderful
TTITLE7=None of Us are Free
TTITLE8=Imagine
TTITLE9=If I Could
TTITLE10=So Help Me God
TTITLE11=America the Beautiful
TTITLE12=I Didn't Know What Time It Was
EXTD=
EXTT0=
EXTT1=
EXTT2=
EXTT3=
EXTT4=
EXTT5=
EXTT6=
EXTT7=
EXTT8=
EXTT9=
EXTT10=
EXTT11=
EXTT12=
PLAYORDER=
